<svg xmlns="http://www.w3.org/2000/svg"  viewBox="0 0 32 32" fill="#ffffff" width="40px" height="40px" data-ux="IconSocial" class="x-el x-el-svg c1-1 c1-2 c1-58 c1-1h c1-2e c1-36 c1-37 c1-38 c1-39 c1-b c1-c c1-d c1-e c1-f c1-g"><path fill-rule="evenodd" d="M22 12c0-5.524-4.477-10-10-10C6.478 2 2 6.478 2 12c0 5.523 4.478 10 10 10 5.523 0 10-4.477 10-10zm-5.074-6H6.871C6.391 6 6 6.38 6 6.85v10.098c0 .47.39.852.871.852h10.056a.864.864 0 00.873-.852V6.85a.863.863 0 00-.874-.85zm-8.3 1.621a1.015 1.015 0 11-.003 2.03 1.015 1.015 0 01.002-2.03zm-.876 2.803h1.753v5.63H7.75v-5.63zm2.85 0h-.002l.002-.002v.002zm0 0h1.677v.77h.023c.233-.443.804-.91 1.66-.91 1.771 0 2.098 1.166 2.098 2.682v3.089H14.31v-2.74c0-.652-.011-1.493-.909-1.493-.91 0-1.05.712-1.05 1.446v2.785H10.6v-5.63z"></path></svg>